<svg id="Capa_1" enable-background="new 0 0 512 512" height="512" viewBox="0 0 512 512" width="512" xmlns="http://www.w3.org/2000/svg"><g><g><path d="m504.5 364.4c4.143 0 7.5-3.357 7.5-7.5v-13.02c0-4.143-3.357-7.5-7.5-7.5h-40.41c-4.143 0-7.5 3.357-7.5 7.5v17.764h-196.12v-44.604h17.754c4.143 0 7.5-3.357 7.5-7.5v-32.91h97.557c4.143 0 7.5-3.357 7.5-7.5v-130.6c0-4.143-3.357-7.5-7.5-7.5s-7.5 3.357-7.5 7.5v22.09h-299.83l-40.751-55.565v-30.455h340.58v28.83c0 4.143 3.357 7.5 7.5 7.5s7.5-3.357 7.5-7.5v-36.33c0-4.143-3.357-7.5-7.5-7.5h-355.58c-4.143 0-7.5 3.357-7.5 7.5v40.41c0 1.596.509 3.149 1.452 4.436l42.998 58.63v10.244h-17.325v-12.703c0-4.143-3.357-7.5-7.5-7.5h-32.325c-4.143 0-7.5 3.357-7.5 7.5v101.016c0 4.143 3.357 7.5 7.5 7.5h32.325c4.143 0 7.5-3.357 7.5-7.5v-12.703h17.325v12.701c0 4.143 3.357 7.5 7.5 7.5h25.44c4.143 0 7.5-3.357 7.5-7.5s-3.357-7.5-7.5-7.5h-17.94v-86.01h296.13v86.01h-243.09c-4.143 0-7.5 3.357-7.5 7.5s3.357 7.5 7.5 7.5h37.017v32.909c0 4.143 3.357 7.5 7.5 7.5h17.754v62.201c0 26.416 21.49 47.906 47.906 47.906l213.723.005v17.748c0 4.143 3.357 7.5 7.5 7.5h40.41c4.143 0 7.5-3.357 7.5-7.5v-52.9c0-4.143-3.357-7.5-7.5-7.5s-7.5 3.357-7.5 7.5v45.4h-25.41v-86.02h25.41v5.521c0 4.142 3.357 7.499 7.5 7.499zm-472.175-102.768h-17.325v-86.016h17.325zm15-20.203v-45.609h17.325v45.609zm137.382 35.203h86.017v25.407h-86.017zm58.16 135.514c-18.145 0-32.906-14.762-32.906-32.906v-62.201h35.509v52.104c0 4.143 3.357 7.5 7.5 7.5h203.62v35.508z"/><path d="m358.455 218.624c0-13.048-10.615-23.663-23.662-23.663-13.048 0-23.663 10.615-23.663 23.663 0 13.047 10.615 23.662 23.663 23.662 13.047 0 23.662-10.615 23.662-23.662zm-32.325 0c0-4.776 3.887-8.663 8.663-8.663s8.662 3.887 8.662 8.663-3.886 8.662-8.662 8.662-8.663-3.886-8.663-8.662z"/><path d="m293.805 218.624c0-13.048-10.615-23.663-23.662-23.663-13.048 0-23.663 10.615-23.663 23.663 0 13.047 10.615 23.662 23.663 23.662 13.046 0 23.662-10.615 23.662-23.662zm-32.326 0c0-4.776 3.887-8.663 8.663-8.663s8.662 3.887 8.662 8.663-3.886 8.662-8.662 8.662-8.663-3.886-8.663-8.662z"/></g></g></svg>