<svg id="icons" enable-background="new 0 0 64 64" height="512" viewBox="0 0 64 64" width="512" xmlns="http://www.w3.org/2000/svg"><path d="m32 0c-15.99 0-29 13.01-29 29v6c0 15.99 13.01 29 29 29s29-13.01 29-29v-6c0-15.99-13.01-29-29-29zm0 62c-12.712 0-23.394-8.833-26.246-20.682 4.641 9.847 14.658 16.682 26.246 16.682s21.605-6.835 26.246-16.682c-2.852 11.849-13.534 20.682-26.246 20.682zm0-6c-14.888 0-27-12.112-27-27s12.112-27 27-27 27 12.112 27 27-12.112 27-27 27z"/><path d="m32 6c-12.683 0-23 10.317-23 23s10.317 23 23 23 23-10.317 23-23-10.317-23-23-23zm0 44c-11.579 0-21-9.421-21-21s9.421-21 21-21 21 9.421 21 21-9.421 21-21 21z"/><path d="m32 10c-10.477 0-19 8.523-19 19s8.523 19 19 19 19-8.523 19-19-8.523-19-19-19zm0 36c-9.374 0-17-7.626-17-17s7.626-17 17-17 17 7.626 17 17-7.626 17-17 17z"/><path d="m32.03 52.999h-.01c-.552 0-.994.447-.994 1s.452 1 1.005 1c.552 0 1-.447 1-1s-.449-1-1.001-1z"/><path d="m32.688 15.266c-.387-.365-.99-.365-1.377 0-.421.399-10.312 9.846-10.312 15.73 0 6.065 4.935 11 11 11s11-4.935 11-11c0-5.885-9.891-15.331-10.311-15.73zm-.689 24.73c-4.963 0-9-4.037-9-9 0-3.854 5.966-10.589 9-13.609 3.035 3.02 9 9.751 9 13.609 0 4.963-4.037 9-9 9z"/><path d="m29 30c1.379 0 2.5-1.121 2.5-2.5s-1.121-2.5-2.5-2.5-2.5 1.121-2.5 2.5 1.121 2.5 2.5 2.5zm0-3c.275 0 .5.225.5.5s-.225.5-.5.5-.5-.225-.5-.5.225-.5.5-.5z"/><path d="m35 31c-1.379 0-2.5 1.121-2.5 2.5s1.121 2.5 2.5 2.5 2.5-1.121 2.5-2.5-1.121-2.5-2.5-2.5zm0 3c-.275 0-.5-.225-.5-.5s.225-.5.5-.5.5.225.5.5-.225.5-.5.5z"/><path d="m26.793 35.707c.195.195.451.293.707.293s.512-.098.707-.293l9-9c.391-.391.391-1.023 0-1.414s-1.023-.391-1.414 0l-9 9c-.391.391-.391 1.023 0 1.414z"/></svg>