<?xml version="1.0" encoding="iso-8859-1"?>
<!-- Generator: Adobe Illustrator 19.0.0, SVG Export Plug-In . SVG Version: 6.00 Build 0)  -->
<svg version="1.1" id="Capa_1" xmlns="http://www.w3.org/2000/svg" xmlns:xlink="http://www.w3.org/1999/xlink" x="0px" y="0px"
	 viewBox="0 0 512 512" style="enable-background:new 0 0 512 512;" xml:space="preserve">
<g>
	<g>
		<path d="M377.247,216.656c6.587,6.587,17.463,5.62,22.827-1.889L506.202,66.185c4.265-5.971,3.588-14.149-1.601-19.337
			L462.149,4.397c-5.189-5.188-13.366-5.865-19.337-1.6L294.231,108.926c-3.59,2.565-5.87,6.579-6.234,10.976
			c-0.363,4.397,1.226,8.731,4.346,11.851l31.839,31.839l-27.229,27.229l-53.065-53.065c-13.834-13.835-34.505-16.759-51.239-8.787
			l-44.28-44.278l10.613-10.613c5.862-5.862,5.862-15.364,0-21.226c-5.861-5.862-15.364-5.862-21.226,0
			c-24.794,24.794-79.333,79.332-84.904,84.904c-5.862,5.862-5.862,15.364,0,21.226c5.861,5.862,15.364,5.862,21.226,0
			l10.613-10.613l44.259,44.259c-2.866,5.987-4.382,12.586-4.382,19.42c0,12.027,4.684,23.335,13.189,31.839l53.065,53.065
			l-27.23,27.229l-31.839-31.839c-3.12-3.12-7.453-4.708-11.851-4.345c-4.397,0.364-8.411,2.644-10.976,6.234L2.796,442.813
			c-4.265,5.971-3.587,14.149,1.601,19.337l42.452,42.452c5.179,5.179,13.356,5.872,19.337,1.6l148.583-106.13
			c7.531-5.379,8.454-16.262,1.889-22.827l-31.839-31.839l27.229-27.229l10.613,10.613c8.778,8.778,20.308,13.167,31.839,13.167
			c0.934,0,1.867-0.039,2.8-0.097c-5.902,32.756,3.773,67.794,29.04,93.06c5.857,5.858,15.365,5.861,21.226,0l53.065-53.065
			l14.509,14.509c5.859,5.862,15.363,5.862,21.226,0c5.862-5.862,5.862-15.364,0-21.226l-14.509-14.509l53.065-53.065
			c2.815-2.815,4.397-6.632,4.397-10.613c0-3.981-1.581-7.799-4.397-10.613c-25.259-25.259-60.286-34.936-93.037-29.044
			c0.802-13.184-4.013-25.554-13.094-34.634l-10.612-10.613l27.23-27.229L377.247,216.656z M59.084,474.386l-24.471-24.471
			l35.376-49.528l38.621,38.622L59.084,474.386z M133.374,421.321L89.3,377.246c-0.545-0.545-1.131-1.023-1.734-1.467l35.488-49.683
			l29.923,29.923l0.001,0.001l0.001,0.001l29.923,29.923L133.374,421.321z M105.917,127.143l21.226-21.226l42.453,42.453
			l-21.226,21.226L105.917,127.143z M212.047,275.726l-53.065-53.065c-5.852-5.853-5.852-15.374,0-21.227l42.452-42.452
			c5.853-5.853,15.374-5.852,21.226,0l53.065,53.065L212.047,275.726z M243.886,307.564l-10.613-10.613l63.678-63.677l10.612,10.613
			c5.867,5.867,5.867,15.359,0,21.226l-42.452,42.452C259.259,313.416,249.738,313.416,243.886,307.564z M360.629,285.619
			c14.444,0,28.889,4.135,41.387,12.398L298.017,402.015c-19.26-29.122-16.079-68.825,9.547-94.451
			C322.193,292.934,341.411,285.619,360.629,285.619z M449.915,34.613l24.471,24.471l-35.377,49.528L400.387,69.99L449.915,34.613z
			 M375.779,87.567c0.444,0.602,0.922,1.188,1.467,1.733l44.075,44.075l-35.376,49.528l-29.92-29.92
			c-0.001-0.001-0.002-0.003-0.003-0.004s-0.003-0.002-0.004-0.003l-29.92-29.92L375.779,87.567z"/>
	</g>
</g>
<g>
	<g>
		<path d="M496.991,391.968c-8.289,0-15.009,6.72-15.009,15.009c0,20.071-7.792,38.917-21.939,53.065
			c-14.149,14.148-32.994,21.939-53.065,21.939c-8.289,0-15.009,6.72-15.009,15.009s6.72,15.009,15.009,15.009
			c28.089,0,54.473-10.914,74.291-30.732C501.086,461.45,512,435.066,512,406.977C512,398.688,505.28,391.968,496.991,391.968z"/>
	</g>
</g>
<g>
	<g>
		<path d="M436.996,391.968c-8.289,0-15.009,6.72-15.009,15.009c0,4.008-1.562,7.778-4.398,10.613
			c-2.834,2.835-6.603,4.396-10.611,4.396c-8.289,0-15.009,6.72-15.009,15.009s6.72,15.009,15.009,15.009
			c12.028,0,23.335-4.684,31.839-13.189s13.188-19.812,13.188-31.838C452.005,398.688,445.285,391.968,436.996,391.968z"/>
	</g>
</g>
<g>
</g>
<g>
</g>
<g>
</g>
<g>
</g>
<g>
</g>
<g>
</g>
<g>
</g>
<g>
</g>
<g>
</g>
<g>
</g>
<g>
</g>
<g>
</g>
<g>
</g>
<g>
</g>
<g>
</g>
</svg>
